<svg xmlns="http://www.w3.org/2000/svg" width="40" height="40" fill="none">
    <path fill="#393939" d="M0 8a8 8 0 0 1 8-8h24a8 8 0 0 1 8 8v24a8 8 0 0 1-8 8H8a8 8 0 0 1-8-8z"/>
    <path fill="#A6A6A6" d="M27.465 12.132s1.666-.649 1.527.928c-.047.65-.463 2.922-.787 5.38l-1.11 7.281s-.092 1.067-.925 1.252c-.832.186-2.081-.649-2.312-.834-.185-.14-3.47-2.227-4.626-3.247-.323-.278-.694-.835.047-1.484l4.856-4.638c.555-.556 1.11-1.855-1.202-.278l-6.476 4.406s-.74.464-2.128.046l-3.006-.927s-1.11-.696.786-1.392c4.626-2.18 10.315-4.406 15.356-6.493"/>
</svg>