<svg xmlns="http://www.w3.org/2000/svg" width="40" height="40" fill="none">
    <path fill="#393939" d="M0 8a8 8 0 0 1 8-8h24a8 8 0 0 1 8 8v24a8 8 0 0 1-8 8H8a8 8 0 0 1-8-8z"/>
    <path fill="#A6A6A6" d="M22.11 19.596c-.365-.138-.365-.663-.388-1.029-.091-1.303.366-3.291-.183-4.137-.388-.503-2.263-.457-3.405-.388-.32.046-.709.114-.983.251-.274.138-.549.366-.549.572 0 .297.686.251.937.64.274.411.274 1.302.274 2.034 0 .845-.137 1.966-.48 2.011-.525.023-.822-.503-1.096-.892a15.3 15.3 0 0 1-1.51-2.606c-.205-.48-.32-1.005-.617-1.21-.457-.321-1.28-.344-2.08-.321-.731.022-1.783-.069-1.989.366-.16.48.183.936.366 1.326.937 2.034 1.943 3.817 3.178 5.508 1.143 1.577 2.216 2.834 4.32 3.497.594.183 3.2.709 3.725 0 .183-.274.138-.892.229-1.349s.205-.914.64-.937c.366-.022.571.297.8.526.252.252.457.457.64.686.435.435.892 1.029 1.44 1.258.754.32 1.92.228 3.017.182.892-.022 1.532-.205 1.6-.731.047-.412-.411-1.006-.685-1.349-.686-.845-1.006-1.097-1.783-1.875-.343-.343-.778-.708-.778-1.12-.023-.25.183-.48.366-.73.8-1.19 1.6-2.035 2.332-3.27.205-.365.686-1.21.503-1.622-.206-.458-1.349-.32-2.058-.32-.914 0-2.103-.07-2.332.113-.434.297-.617.778-.822 1.235-.457 1.052-1.075 2.126-1.715 2.926-.229.274-.663.845-.914.754"/>
</svg>