<svg xmlns="http://www.w3.org/2000/svg" width="40" height="40" fill="none">
    <path fill="#393939" d="M0 8a8 8 0 0 1 8-8h24a8 8 0 0 1 8 8v24a8 8 0 0 1-8 8H8a8 8 0 0 1-8-8z"/>
    <path fill="#A6A6A6" d="M20.375 10A9.36 9.36 0 0 0 11 19.375c0 2.125.688 4.125 2 5.75l-1.312 4c-.063.25 0 .5.187.688.063.125.25.187.375.187.063 0 .188 0 .25-.062L16.813 28q1.687.75 3.562.75a9.36 9.36 0 0 0 9.375-9.375A9.36 9.36 0 0 0 20.375 10m5.438 12.813c-.25.75-1.188 1.375-2 1.5-.188.062-.375.062-.625.062-.5 0-1.25-.125-2.563-.687-1.5-.625-3-1.938-4.187-3.625V20c-.375-.562-1.063-1.625-1.063-2.75 0-1.375.688-2.062.938-2.375.312-.312.75-.5 1.25-.5h.312c.438 0 .75.125 1.063.75l.25.5c.187.5.437 1.063.5 1.125.187.375.187.688 0 1-.063.188-.188.313-.313.438q-.094.187-.187.187l-.125.125c.187.313.562.875 1.062 1.313.75.687 1.313.875 1.625 1 .125-.125.25-.375.438-.563l.062-.125c.313-.437.813-.562 1.313-.375.25.125 1.625.75 1.625.75l.125.063c.187.125.437.187.562.437.25.563.063 1.375-.062 1.813"/>
</svg>