<svg xmlns="http://www.w3.org/2000/svg">

    <symbol id="logo">
        <path fill="currentColor" d="M119.711 3.998h4.44v4.128l-.168.576v3.552l.168 1.056v8.328h-4.44zm2.976 6.84q.36-2.208 1.368-3.816t2.544-2.496q1.56-.912 3.456-.912 2.016 0 3.528.912 1.536.912 2.4 2.544.864 1.608.864 3.768t-.864 3.792a6.4 6.4 0 0 1-2.4 2.52q-1.512.912-3.528.912-1.92 0-3.456-.888-1.512-.912-2.52-2.52-1.008-1.632-1.392-3.816m9.648 0q0-1.104-.456-1.944a3.3 3.3 0 0 0-1.272-1.344q-.792-.504-1.824-.504-1.056 0-2.016.504-.96.48-1.68 1.344a6.2 6.2 0 0 0-1.08 1.944 6.5 6.5 0 0 0 1.08 1.968q.72.84 1.68 1.344.96.48 2.016.48 1.032 0 1.824-.48a3.54 3.54 0 0 0 1.272-1.344q.456-.864.456-1.968m-32.007-6.84h4.44v4.128l-.168.576v3.552l.168 1.056v8.328h-4.44zm2.976 6.84q.36-2.208 1.368-3.816t2.544-2.496q1.56-.912 3.456-.912 2.016 0 3.528.912 1.536.912 2.4 2.544.864 1.608.864 3.768t-.864 3.792a6.4 6.4 0 0 1-2.4 2.52q-1.512.912-3.528.912-1.92 0-3.456-.888-1.512-.912-2.52-2.52-1.008-1.632-1.392-3.816m9.648 0q0-1.104-.456-1.944a3.3 3.3 0 0 0-1.272-1.344q-.792-.504-1.824-.504-1.056 0-2.016.504-.96.48-1.68 1.344a6.2 6.2 0 0 0-1.08 1.944 6.5 6.5 0 0 0 1.08 1.968q.72.84 1.68 1.344.96.48 2.016.48 1.032 0 1.824-.48a3.54 3.54 0 0 0 1.272-1.344q.456-.864.456-1.968m-19.786 6.84-.6-4.968.648-1.872-.648-1.848.6-4.992h4.632l-.84 6.84.84 6.84zm1.104-6.84q-.36 2.184-1.368 3.816-1.008 1.608-2.544 2.52-1.536.888-3.456.888-2.016 0-3.552-.912a6.44 6.44 0 0 1-2.376-2.52q-.864-1.632-.864-3.792t.864-3.768q.864-1.632 2.376-2.544 1.536-.912 3.552-.912 1.92 0 3.456.912 1.536.888 2.544 2.496 1.032 1.608 1.368 3.816m-9.648 0q0 1.104.456 1.968.456.84 1.248 1.344.816.48 1.872.48t1.992-.48q.96-.504 1.68-1.344.72-.864 1.08-1.968a5.6 5.6 0 0 0-1.08-1.944 5.2 5.2 0 0 0-1.68-1.344 4.14 4.14 0 0 0-1.992-.504q-1.056 0-1.872.504-.792.48-1.248 1.344-.456.84-.456 1.944m-14.764 7.224q-2.592 0-4.536-.912t-3.024-2.544-1.08-3.768q0-2.16 1.08-3.768 1.08-1.632 3.024-2.544 1.968-.912 4.536-.912 2.592 0 4.536.912 1.968.912 3.048 2.544 1.08 1.608 1.08 3.768t-1.08 3.792q-1.08 1.608-3.048 2.52-1.944.912-4.536.912m0-3.36q1.32 0 2.232-.456a3.3 3.3 0 0 0 1.416-1.344q.504-.864.504-2.064t-.504-2.064a3.15 3.15 0 0 0-1.416-1.32q-.912-.48-2.232-.48-1.272 0-2.208.48a3.3 3.3 0 0 0-1.44 1.32q-.504.864-.504 2.064t.504 2.064a3.44 3.44 0 0 0 1.44 1.344q.936.456 2.208.456M46.836 7.31V5.366l2.832-1.032L51.588.35h2.544v3.648h5.904V7.31h-5.904v4.512q0 1.536.624 2.16.624.6 2.232.6 1.032 0 1.8-.168a8.6 8.6 0 0 0 1.488-.504v3.384q-.72.288-1.896.528-1.152.24-2.4.24-2.184 0-3.6-.696-1.392-.696-2.064-1.944-.648-1.272-.648-2.976V7.31zm-.71 5.976q0 1.536-.912 2.616-.888 1.056-2.616 1.608t-4.2.552q-2.52 0-4.416-.624t-2.952-1.752-1.128-2.616h4.536q.144.6.672 1.056.552.456 1.416.696.864.216 2.04.216 1.584 0 2.4-.336t.816-1.008q0-.504-.6-.768-.576-.264-2.088-.384l-2.496-.192q-2.352-.168-3.744-.744t-1.992-1.464a3.6 3.6 0 0 1-.576-1.992q0-1.512.936-2.52.96-1.008 2.64-1.512t3.936-.504 4.008.6q1.776.6 2.832 1.656 1.08 1.056 1.224 2.472h-4.536q-.096-.48-.528-.888-.408-.408-1.2-.648-.768-.264-2.016-.264-1.416 0-2.16.312t-.744.912q0 .456.456.72t1.728.384l3.24.24q2.304.192 3.6.744 1.32.528 1.872 1.392t.552 2.04m-25.021 4.776q-2.448 0-4.392-.912-1.92-.912-3.024-2.544t-1.104-3.816q0-2.136 1.056-3.744t2.904-2.52q1.872-.912 4.224-.912 2.4 0 4.128 1.056t2.664 2.976.936 4.512H16.161V9.35h9.888l-1.608 1.008q-.072-1.128-.552-1.896a3.04 3.04 0 0 0-1.224-1.2q-.768-.432-1.824-.432-1.152 0-1.992.456t-1.32 1.272q-.456.816-.456 1.896 0 1.368.6 2.328.624.96 1.776 1.464 1.176.504 2.856.504 1.536 0 3.072-.408a10.5 10.5 0 0 0 2.76-1.2v2.904q-1.392.96-3.192 1.488-1.776.528-3.84.528M0 3.998h4.512l.816 4.92v8.76H.864v-9.12zm11.856-.192v3.84a12 12 0 0 0-2.448-.288q-1.152 0-2.088.48-.912.456-1.464 1.464-.528 1.008-.528 2.616l-.888-1.104q.168-1.464.552-2.76a8.1 8.1 0 0 1 1.056-2.28Q6.72 4.766 7.704 4.19q1.008-.576 2.424-.576.408 0 .864.048t.864.144"/>
    </symbol>

    <symbol id="x-mark">
        <path fill="#393939" d="M22 12c0 5.523-4.477 10-10 10S2 17.523 2 12 6.477 2 12 2s10 4.477 10 10"/>
        <path fill="#fff" d="M14.298 15.359a.75.75 0 1 0 1.06-1.061L13.062 12l2.298-2.298a.75.75 0 0 0-1.06-1.06L12 10.938 9.702 8.641a.75.75 0 0 0-1.06 1.06L10.94 12 8.64 14.298a.75.75 0 1 0 1.061 1.06L12 13.062z"/>
    </symbol>

    <symbol id="user">
        <path fill="currentColor" fill-rule="evenodd" d="M12 3.85a3.15 3.15 0 1 0 0 6.3 3.15 3.15 0 0 0 0-6.3M7.15 7a4.85 4.85 0 1 1 9.7 0 4.85 4.85 0 0 1-9.7 0m.28 8.785c-1.176.589-1.58 1.244-1.58 1.715s.404 1.126 1.58 1.715c1.126.562 2.74.935 4.57.935s3.444-.373 4.57-.935c1.176-.589 1.58-1.244 1.58-1.715s-.404-1.126-1.58-1.715c-1.126-.562-2.74-.935-4.57-.935s-3.444.373-4.57.935m-.76-1.52C8.078 13.56 9.964 13.15 12 13.15s3.922.41 5.33 1.115c1.357.678 2.52 1.773 2.52 3.235s-1.163 2.557-2.52 3.235c-1.408.704-3.294 1.115-5.33 1.115s-3.922-.41-5.33-1.115c-1.357-.678-2.52-1.773-2.52-3.235s1.163-2.557 2.52-3.235" clip-rule="evenodd"/>
    </symbol>

    <symbol id="cart">
        <path fill="currentColor" d="M20.034 6.058a2.24 2.24 0 0 0-1.727-.808H6.181l-.031-.263A2.25 2.25 0 0 0 3.916 3H3.75a.75.75 0 0 0 0 1.5h.166a.75.75 0 0 1 .745.662l1.032 8.775a3.75 3.75 0 0 0 3.725 3.313h7.832a.75.75 0 0 0 0-1.5H9.418a2.25 2.25 0 0 1-2.115-1.5h8.94a3.75 3.75 0 0 0 3.69-3.085l.589-3.265a2.24 2.24 0 0 0-.488-1.842m-.984 1.575-.59 3.266a2.25 2.25 0 0 1-2.218 1.85H7.064l-.706-6h11.95a.75.75 0 0 1 .742.884M8.25 21a1.5 1.5 0 1 0 0-3 1.5 1.5 0 0 0 0 3M15.75 21a1.5 1.5 0 1 0 0-3 1.5 1.5 0 0 0 0 3"/>
    </symbol>

    <symbol id="appstore">
        <path fill="currentColor" d="M132.889.801c2.366 0 4.292 1.884 4.292 4.199v30c0 2.315-1.926 4.199-4.292 4.199H5.111C2.745 39.199.82 37.315.82 35V5C.82 2.685 2.745.801 5.111.801zm0-.801H5.111C2.301 0 0 2.251 0 5v30c0 2.749 2.301 5 5.111 5H132.89c2.81 0 5.111-2.251 5.111-5V5c0-2.749-2.301-5-5.111-5"/>
        <path fill="currentColor" d="M30.798 19.784c-.03-3.223 2.697-4.791 2.822-4.864-1.545-2.203-3.939-2.504-4.78-2.528-2.01-.207-3.961 1.177-4.985 1.177-1.045 0-2.622-1.157-4.322-1.123-2.188.033-4.234 1.272-5.357 3.196-2.316 3.923-.589 9.688 1.63 12.859 1.11 1.553 2.408 3.287 4.106 3.226 1.661-.067 2.282-1.036 4.286-1.036 1.986 0 2.569 1.036 4.3.997 1.783-.028 2.906-1.56 3.977-3.127 1.283-1.78 1.798-3.533 1.819-3.623-.042-.014-3.463-1.291-3.496-5.154M27.526 10.306c.894-1.093 1.505-2.58 1.335-4.089-1.293.056-2.91.875-3.841 1.944-.824.942-1.56 2.486-1.37 3.938 1.453.106 2.944-.717 3.876-1.793M54.837 31.504h-2.321l-1.272-3.91h-4.42l-1.211 3.91h-2.26l4.379-13.308h2.705zm-3.976-5.55-1.15-3.474q-.182-.533-.686-2.507h-.041q-.202.85-.646 2.507l-1.13 3.475zM66.099 26.588q0 2.448-1.353 3.869-1.211 1.264-3.007 1.264-1.938 0-2.785-1.362h-.041v5.055h-2.18V25.067q0-1.54-.08-3.16h1.916l.122 1.522h.04q1.091-1.718 3.31-1.718 1.737 0 2.897 1.342 1.161 1.344 1.16 3.535m-2.22.078q0-1.401-.646-2.31-.708-.948-1.898-.948-.807.001-1.462.523-.657.525-.858 1.373-.102.395-.101.65v1.6q0 1.047.656 1.768.657.72 1.705.72 1.23 0 1.917-.927.687-.929.687-2.45M77.381 26.588q0 2.448-1.353 3.869-1.211 1.264-3.006 1.264-1.939 0-2.785-1.362h-.04v5.055h-2.18V25.067q0-1.54-.081-3.16h1.917l.121 1.522h.041q1.089-1.718 3.31-1.718 1.734 0 2.897 1.342 1.159 1.344 1.16 3.535m-2.22.078q0-1.401-.647-2.31-.706-.948-1.896-.948a2.3 2.3 0 0 0-1.464.523q-.656.525-.857 1.373-.1.395-.1.65v1.6q0 1.047.653 1.768.656.72 1.708.72 1.231 0 1.916-.927.687-.929.687-2.45M89.996 27.772q0 1.698-1.209 2.764-1.328 1.165-3.705 1.165-2.194 0-3.526-.829l.505-1.777q1.435.85 3.15.85 1.232 0 1.92-.544.684-.544.684-1.454 0-.81-.565-1.364-.564-.553-1.877-1.029-3.573-1.304-3.572-3.816 0-1.642 1.253-2.689 1.248-1.048 3.33-1.048 1.856 0 3.087.632l-.545 1.738q-1.148-.612-2.603-.612-1.151 0-1.795.553-.545.493-.545 1.205 0 .79.624 1.303.544.474 1.98 1.027 1.754.691 2.583 1.618.826.925.826 2.307M97.201 23.508H94.8v4.659q0 1.777 1.272 1.777.584 0 .968-.099l.06 1.619q-.645.236-1.695.236-1.29 0-2.019-.77-.726-.77-.727-2.587v-4.837h-1.43v-1.6h1.43v-1.757l2.14-.632v2.389h2.403zM108.04 26.627q-.001 2.212-1.292 3.633-1.355 1.461-3.594 1.46-2.16 0-3.44-1.4-1.282-1.402-1.282-3.534 0-2.231 1.322-3.652 1.32-1.422 3.561-1.422 2.16 0 3.471 1.402 1.255 1.36 1.254 3.513m-2.261.069q0-1.328-.585-2.277-.686-1.148-1.957-1.148-1.313 0-1.998 1.148-.586.95-.585 2.317-.001 1.328.585 2.276.705 1.149 1.979 1.148 1.249 0 1.956-1.168.604-.969.605-2.296M115.124 23.783a4 4 0 0 0-.687-.06q-1.151 0-1.777.85-.545.75-.545 1.896v5.035h-2.178l.021-6.574q0-1.659-.082-3.021h1.898l.08 1.836h.06q.345-.948 1.09-1.52a2.67 2.67 0 0 1 1.575-.514q.302 0 .545.039zM124.871 26.252q0 .573-.08.967h-6.538q.038 1.423.948 2.173.827.67 2.139.671 1.453 0 2.645-.454l.342 1.48q-1.392.593-3.289.593-2.281 0-3.584-1.313-1.3-1.313-1.301-3.524 0-2.171 1.212-3.613 1.271-1.539 3.43-1.539 2.12 0 3.211 1.539.864 1.224.865 3.02m-2.079-.553q.022-.948-.423-1.639-.566-.89-1.737-.889-1.07 0-1.734.869-.545.692-.645 1.658h4.539zM45.547 9.718h.866c.795 0 1.27.364 1.27.98 0 .606-.501 1.02-1.244 1.02-.773 0-1.3-.374-1.35-.967H44c.057 1.15 1.024 1.907 2.435 1.907 1.384 0 2.412-.809 2.412-1.894 0-.853-.532-1.46-1.384-1.56v-.036c.703-.158 1.186-.747 1.186-1.459C48.65 6.703 47.753 6 46.456 6c-1.362 0-2.245.725-2.302 1.88h1.059c.048-.597.51-.966 1.213-.966.694 0 1.125.352 1.125.923s-.47.967-1.16.967h-.844zM51.545 11.748c-.474 0-.79-.242-.79-.624 0-.37.302-.606.83-.642l1.076-.066v.357c0 .562-.496.975-1.116.975m-.33.826c.598 0 1.183-.312 1.45-.817h.023v.742h1.054V9.292c0-.936-.751-1.546-1.907-1.546-1.186 0-1.929.624-1.977 1.494h1.015c.07-.387.4-.637.918-.637.54 0 .87.28.87.769v.334l-1.23.07c-1.134.07-1.771.567-1.771 1.393 0 .84.655 1.406 1.556 1.406M58.04 8.685v-.844h-3.16V12.5h1.09V8.686zM61.551 7.762c-.677 0-1.204.343-1.468.884h-.021V7.84h-1.068v6.192h1.094v-2.307h.022c.255.523.782.848 1.459.848 1.169 0 1.916-.918 1.916-2.404 0-1.49-.752-2.408-1.934-2.408m-.334 3.916c-.68 0-1.133-.594-1.138-1.508.005-.905.457-1.507 1.138-1.507.708 0 1.147.589 1.147 1.507 0 .923-.44 1.508-1.147 1.508M64.86 14.231c1.064 0 1.578-.391 1.978-1.547l1.683-4.843h-1.152l-1.098 3.727h-.018L65.155 7.84h-1.196l1.657 4.663c.004.013-.061.246-.061.26-.124.43-.357.601-.81.601-.065 0-.258-.004-.316-.017v.865c.058.014.37.018.431.018M71.034 12.592c1.2 0 1.965-.58 1.965-1.481 0-.523-.308-.905-.892-1.046v-.035c.448-.119.729-.51.729-.98 0-.8-.642-1.305-1.815-1.305-1.09 0-1.802.54-1.894 1.42h1.037c.062-.361.378-.572.857-.572.505 0 .747.233.747.567 0 .378-.26.562-.756.562h-.641v.756h.663c.585 0 .88.193.88.615 0 .378-.317.637-.88.637-.51 0-.844-.215-.94-.615H69.03c.088.919.857 1.477 2.004 1.477M75.06 12.5l2.025-3.134h.036V12.5h1.072V7.841H77.12l-2.026 3.112h-.035V7.84h-1.073V12.5zM83 7.841h-3.95v.844h1.432V12.5h1.086V8.686H83zM85.782 8.593c.628 0 1.05.461 1.072 1.12H84.68c.044-.65.488-1.12 1.103-1.12m1.077 2.513c-.12.387-.506.642-1.016.642-.716 0-1.173-.5-1.173-1.248v-.066h3.256v-.356c0-1.415-.826-2.333-2.149-2.333-1.344 0-2.197.97-2.197 2.443 0 1.485.844 2.404 2.241 2.404 1.103 0 1.92-.607 2.061-1.486zM92.826 8.584c.444 0 .69.207.69.571 0 .387-.264.59-.774.59h-.8V8.583zm-.018 1.854c.59 0 .892.225.892.66 0 .426-.285.659-.804.659h-.953v-1.319zM90.87 12.5h2.246c1.033 0 1.674-.522 1.674-1.344 0-.585-.413-1.015-1.024-1.094v-.036c.462-.079.818-.514.818-1.002 0-.738-.563-1.182-1.503-1.182h-2.21z"/>
    </symbol>

    <symbol id="googleplay">
        <path fill="currentColor" d="M132.628.801c2.362 0 4.284 1.884 4.284 4.199v30c0 2.315-1.922 4.199-4.284 4.199H5.101C2.74 39.199.817 37.315.817 35V5C.817 2.685 2.74.801 5.101.801zm0-.801H5.101C2.297 0 0 2.251 0 5v30c0 2.749 2.297 5 5.101 5h127.527c2.805 0 5.101-2.251 5.101-5V5c0-2.749-2.296-5-5.101-5"/>
        <path fill="currentColor" d="M69.512 21.753c-2.396 0-4.354 1.787-4.354 4.253 0 2.447 1.958 4.253 4.354 4.253 2.401 0 4.359-1.806 4.359-4.253 0-2.466-1.957-4.253-4.359-4.253m0 6.83c-1.315 0-2.446-1.063-2.446-2.577 0-1.533 1.131-2.579 2.446-2.579s2.451 1.046 2.451 2.58c0 1.513-1.136 2.577-2.45 2.577m-9.5-6.83c-2.4 0-4.353 1.787-4.353 4.253 0 2.447 1.952 4.253 4.354 4.253 2.4 0 4.353-1.806 4.353-4.253 0-2.466-1.953-4.253-4.353-4.253m0 6.83c-1.315 0-2.45-1.063-2.45-2.577 0-1.533 1.135-2.579 2.45-2.579s2.447 1.046 2.447 2.58c0 1.513-1.132 2.577-2.446 2.577M48.71 23.057v1.808h4.403c-.129 1.01-.473 1.752-1 2.27-.644.625-1.645 1.319-3.403 1.319-2.71 0-4.832-2.144-4.832-4.8 0-2.657 2.122-4.8 4.832-4.8 1.465 0 2.531.56 3.318 1.288l1.3-1.273c-1.101-1.03-2.565-1.822-4.618-1.822-3.717 0-6.84 2.964-6.84 6.607 0 3.642 3.124 6.606 6.84 6.606 2.008 0 3.517-.645 4.703-1.855 1.215-1.192 1.594-2.866 1.594-4.219 0-.42-.036-.806-.1-1.129zm46.223 1.401c-.358-.95-1.464-2.704-3.716-2.704-2.232 0-4.09 1.723-4.09 4.253 0 2.383 1.84 4.253 4.304 4.253a4.32 4.32 0 0 0 3.617-1.885l-1.48-.966c-.493.707-1.165 1.176-2.137 1.176-.965 0-1.658-.434-2.101-1.289l5.803-2.354zm-5.917 1.417a2.355 2.355 0 0 1 2.266-2.48c.757 0 1.4.371 1.614.902zM84.298 30h1.907V17.5h-1.907zm-3.125-7.3h-.064c-.428-.497-1.245-.947-2.281-.947-2.173 0-4.16 1.87-4.16 4.267 0 2.384 1.987 4.239 4.16 4.239 1.035 0 1.853-.454 2.281-.966h.064v.61c0 1.626-.886 2.5-2.316 2.5-1.165 0-1.888-.825-2.187-1.52l-1.659.68c.478 1.127 1.745 2.515 3.846 2.515 2.237 0 4.125-1.29 4.125-4.43v-7.637h-1.809zm-2.182 5.884c-1.315 0-2.415-1.079-2.415-2.564 0-1.499 1.1-2.593 2.415-2.593 1.296 0 2.317 1.094 2.317 2.593 0 1.485-1.021 2.564-2.317 2.564M103.864 17.5h-4.563V30h1.903v-4.736h2.66c2.113 0 4.186-1.499 4.186-3.883 0-2.382-2.078-3.881-4.186-3.881m.05 6.025h-2.71v-4.286h2.71a2.19 2.19 0 0 1 2.232 2.142c0 .968-.811 2.144-2.232 2.144m11.762-1.796c-1.375 0-2.805.595-3.393 1.913l1.689.694c.363-.694 1.032-.918 1.738-.918.987 0 1.988.58 2.004 1.607v.131c-.345-.195-1.082-.483-1.989-.483-1.818 0-3.671.98-3.671 2.812 0 1.675 1.489 2.754 3.164 2.754 1.28 0 1.987-.567 2.431-1.225h.065v.966h1.837v-4.795c0-2.216-1.688-3.456-3.875-3.456m-.23 6.85c-.622 0-1.489-.303-1.489-1.059 0-.968 1.081-1.339 2.017-1.339.838 0 1.231.181 1.74.42-.15 1.158-1.166 1.978-2.268 1.978m10.8-6.576-2.187 5.418h-.065l-2.261-5.418h-2.052l3.398 7.572-1.939 4.214h1.988l5.235-11.786zM109.095 30h1.908V17.5h-1.908z"/>
        <path fill="url(#a)" fill-opacity=".5" d="M10.647 7.539c-.3.307-.474.786-.474 1.406V31.06c0 .62.174 1.099.473 1.406l.074.068 12.643-12.388v-.292L10.72 7.466z"/>
        <path fill="url(#b)" fill-opacity=".5" d="m27.573 24.278-4.21-4.132v-.292l4.215-4.131.094.053 4.992 2.784c1.424.79 1.424 2.09 0 2.885l-4.992 2.779z"/>
        <path fill="url(#c)" fill-opacity=".5" d="M27.671 24.224 23.362 20 10.645 32.466c.473.488 1.245.547 2.122.059z"/>
        <path fill="url(#d)" fill-opacity=".5" d="M27.671 15.776 12.767 7.475c-.877-.482-1.649-.424-2.122.064L23.362 20z"/>
        <path fill="currentColor" d="M49.44 11.45v.948h-4.654v-.949zm-4.325 0v2.517h-1.144l-.057-2.518zm5.224 0-.092 2.522h-1.119v-2.523zM48.689 6v.954h-3.008V6zm.891 0v6.398h-1.202V6zm-4.092 0h1.206l-.162 2.602a8 8 0 0 1-.132 1.12q-.092.492-.228.875-.135.383-.302.672a3 3 0 0 1-.72.861 5 5 0 0 1-.372.268h-.671v-.949h.289q.127-.11.268-.307.144-.198.276-.523.136-.325.237-.822t.145-1.195zM50.98 10.07v-.093q0-.524.148-.962.15-.444.434-.77.285-.324.698-.505.412-.184.938-.184.536 0 .948.184.416.18.701.506.285.325.435.769.15.439.149.962v.092q0 .519-.15.963-.148.44-.434.769-.285.325-.697.505-.413.18-.943.18-.526 0-.943-.18a1.95 1.95 0 0 1-.702-.505 2.3 2.3 0 0 1-.434-.77q-.15-.443-.149-.962m1.157-.093v.092q0 .312.061.585.062.272.189.479a.95.95 0 0 0 .329.325 1 1 0 0 0 .491.114.96.96 0 0 0 .483-.114.95.95 0 0 0 .329-.325q.131-.207.193-.48.06-.271.06-.584v-.092q0-.307-.06-.576a1.5 1.5 0 0 0-.194-.479.92.92 0 0 0-.82-.452.91.91 0 0 0-.811.452 1.6 1.6 0 0 0-.189.48 2.6 2.6 0 0 0-.061.575M58.4 11.572q.246 0 .439-.096a.77.77 0 0 0 .306-.273.77.77 0 0 0 .128-.409h1.092q-.01.484-.272.866-.264.382-.702.607-.434.22-.974.22-.548 0-.956-.185a1.9 1.9 0 0 1-.68-.514 2.3 2.3 0 0 1-.403-.765q-.132-.434-.132-.932v-.14q0-.497.132-.932.135-.435.404-.765.27-.329.68-.514a2.3 2.3 0 0 1 .951-.184q.575 0 1.009.224.438.224.684.633.25.408.259.962h-1.092a1.06 1.06 0 0 0-.114-.457.84.84 0 0 0-.299-.325.86.86 0 0 0-.469-.123.9.9 0 0 0-.491.123.85.85 0 0 0-.303.338q-.105.21-.149.475-.04.259-.04.545v.14q0 .29.04.554.045.264.15.475a.86.86 0 0 0 .302.33.93.93 0 0 0 .5.122M63.619 7.644v4.754h-1.162V7.644zm1.544 0v.905h-4.224v-.905zM67.465 11.871l1.272-4.227h1.241l-1.903 5.475q-.066.176-.171.383a1.6 1.6 0 0 1-.272.39 1.3 1.3 0 0 1-.43.308q-.255.12-.618.119a1.6 1.6 0 0 1-.281-.022 4 4 0 0 1-.259-.057v-.87a1 1 0 0 0 .101.004 1.5 1.5 0 0 0 .526-.057.55.55 0 0 0 .268-.19 1 1 0 0 0 .175-.333zm-.627-4.227 1.075 3.502.188 1.226-.798.145-1.715-4.873zM73.904 7.644v.918h-2.32v-.918zm-2.014 0v4.754h-1.162V7.644zm2.89 0v4.754h-1.166V7.644zM79.254 9.595v.91H76.82v-.91zm-2.07-1.951v4.754h-1.162V7.644zm2.882 0v4.754h-1.167V7.644zM81.092 10.07v-.093q0-.524.149-.962.15-.444.434-.77.285-.324.697-.505.412-.184.939-.184.535 0 .947.184.417.18.702.506.285.325.434.769.15.439.15.962v.092q0 .519-.15.963-.15.44-.434.769-.285.325-.697.505-.413.18-.943.18-.526 0-.943-.18a1.95 1.95 0 0 1-.702-.505 2.3 2.3 0 0 1-.434-.77q-.15-.443-.15-.962m1.158-.093v.092q0 .312.061.585.06.272.189.479a.95.95 0 0 0 .329.325 1 1 0 0 0 .49.114.96.96 0 0 0 .483-.114.94.94 0 0 0 .33-.325q.13-.207.192-.48a2.7 2.7 0 0 0 .061-.584v-.092q0-.307-.06-.576a1.5 1.5 0 0 0-.194-.479.92.92 0 0 0-.82-.452.91.91 0 0 0-.811.452 1.6 1.6 0 0 0-.189.48q-.06.267-.061.575M91.315 10.386H89.81l-.01-.787h1.238q.276 0 .451-.057a.5.5 0 0 0 .26-.171.44.44 0 0 0 .087-.277.5.5 0 0 0-.053-.242.4.4 0 0 0-.158-.171.7.7 0 0 0-.258-.097 1.6 1.6 0 0 0-.36-.035h-.785v3.85H89.06V7.643h1.947q.46 0 .829.083.368.079.627.242.258.162.395.413.14.246.14.58a.9.9 0 0 1-.096.413q-.097.193-.285.343-.189.15-.465.246-.277.092-.632.114zm0 2.012h-1.816l.43-.905h1.386q.255 0 .421-.061a.5.5 0 0 0 .246-.19.52.52 0 0 0 .083-.298.53.53 0 0 0-.079-.295.46.46 0 0 0-.241-.193 1.1 1.1 0 0 0-.43-.07h-1.197l.008-.787h1.39l.308.312q.474.03.785.194.31.158.465.404a.97.97 0 0 1 .153.531q0 .339-.127.594-.128.255-.373.426a1.9 1.9 0 0 1-.6.255 3.6 3.6 0 0 1-.812.083"/><defs><linearGradient id="a" x1="22.241" x2="5.462" y1="31.29" y2="14.172" gradientUnits="userSpaceOnUse"><stop stop-color="#00A0FF"/><stop offset=".007" stop-color="#00A1FF"/><stop offset=".26" stop-color="#00BEFF"/><stop offset=".512" stop-color="#00D2FF"/><stop offset=".76" stop-color="#00DFFF"/><stop offset="1" stop-color="#00E3FF"/></linearGradient><linearGradient id="b" x1="34.519" x2="9.832" y1="19.999" y2="19.999" gradientUnits="userSpaceOnUse"><stop stop-color="#FFE000"/><stop offset=".409" stop-color="#FFBD00"/><stop offset=".775" stop-color="orange"/><stop offset="1" stop-color="#FF9C00"/></linearGradient><linearGradient id="c" x1="25.328" x2="2.574" y1="17.704" y2="-5.51" gradientUnits="userSpaceOnUse"><stop stop-color="#FF3A44"/><stop offset="1" stop-color="#C31162"/></linearGradient><linearGradient id="d" x1="7.444" x2="17.605" y1="39.824" y2="29.458" gradientUnits="userSpaceOnUse"><stop stop-color="#32A071"/><stop offset=".069" stop-color="#2DA771"/><stop offset=".476" stop-color="#15CF74"/><stop offset=".801" stop-color="#06E775"/><stop offset="1" stop-color="#00F076"/></linearGradient></defs>
    </symbol>

    <symbol id="googleplaywrapper">
        <path fill="#F4F4F4" d="M132.628.801c2.362 0 4.284 1.884 4.284 4.199v30c0 2.315-1.922 4.199-4.284 4.199H5.101C2.74 39.199.817 37.315.817 35V5C.817 2.685 2.74.801 5.101.801zm0-.801H5.101C2.297 0 0 2.251 0 5v30c0 2.749 2.297 5 5.101 5h127.527c2.805 0 5.101-2.251 5.101-5V5c0-2.749-2.296-5-5.101-5"/>
        <path fill="#F4F4F4" d="M69.512 21.753c-2.396 0-4.354 1.787-4.354 4.253 0 2.447 1.958 4.253 4.354 4.253 2.401 0 4.359-1.806 4.359-4.253 0-2.466-1.957-4.253-4.359-4.253m0 6.83c-1.315 0-2.446-1.063-2.446-2.577 0-1.533 1.131-2.579 2.446-2.579s2.451 1.046 2.451 2.58c0 1.513-1.136 2.577-2.45 2.577m-9.5-6.83c-2.4 0-4.353 1.787-4.353 4.253 0 2.447 1.952 4.253 4.354 4.253 2.4 0 4.353-1.806 4.353-4.253 0-2.466-1.953-4.253-4.353-4.253m0 6.83c-1.315 0-2.45-1.063-2.45-2.577 0-1.533 1.135-2.579 2.45-2.579s2.447 1.046 2.447 2.58c0 1.513-1.132 2.577-2.446 2.577M48.71 23.057v1.808h4.403c-.129 1.01-.473 1.752-1 2.27-.644.625-1.645 1.319-3.403 1.319-2.71 0-4.832-2.144-4.832-4.8 0-2.657 2.122-4.8 4.832-4.8 1.465 0 2.531.56 3.318 1.288l1.3-1.273c-1.101-1.03-2.565-1.822-4.618-1.822-3.717 0-6.84 2.964-6.84 6.607 0 3.642 3.124 6.606 6.84 6.606 2.008 0 3.517-.645 4.703-1.855 1.215-1.192 1.594-2.866 1.594-4.219 0-.42-.036-.806-.1-1.129zm46.223 1.401c-.358-.95-1.464-2.704-3.716-2.704-2.232 0-4.09 1.723-4.09 4.253 0 2.383 1.84 4.253 4.304 4.253a4.32 4.32 0 0 0 3.617-1.885l-1.48-.966c-.493.707-1.165 1.176-2.137 1.176-.965 0-1.658-.434-2.101-1.289l5.803-2.354zm-5.917 1.417a2.355 2.355 0 0 1 2.266-2.48c.757 0 1.4.371 1.614.902zM84.298 30h1.907V17.5h-1.907zm-3.125-7.3h-.064c-.428-.497-1.245-.947-2.281-.947-2.173 0-4.16 1.87-4.16 4.267 0 2.384 1.987 4.239 4.16 4.239 1.035 0 1.853-.454 2.281-.966h.064v.61c0 1.626-.886 2.5-2.316 2.5-1.165 0-1.888-.825-2.187-1.52l-1.659.68c.478 1.127 1.745 2.515 3.846 2.515 2.237 0 4.125-1.29 4.125-4.43v-7.637h-1.809zm-2.182 5.884c-1.315 0-2.415-1.079-2.415-2.564 0-1.499 1.1-2.593 2.415-2.593 1.296 0 2.317 1.094 2.317 2.593 0 1.485-1.021 2.564-2.317 2.564M103.864 17.5h-4.563V30h1.903v-4.736h2.66c2.113 0 4.186-1.499 4.186-3.883 0-2.382-2.078-3.881-4.186-3.881m.05 6.025h-2.71v-4.286h2.71a2.19 2.19 0 0 1 2.232 2.142c0 .968-.811 2.144-2.232 2.144m11.762-1.796c-1.375 0-2.805.595-3.393 1.913l1.689.694c.363-.694 1.032-.918 1.738-.918.987 0 1.988.58 2.004 1.607v.131c-.345-.195-1.082-.483-1.989-.483-1.818 0-3.671.98-3.671 2.812 0 1.675 1.489 2.754 3.164 2.754 1.28 0 1.987-.567 2.431-1.225h.065v.966h1.837v-4.795c0-2.216-1.688-3.456-3.875-3.456m-.23 6.85c-.622 0-1.489-.303-1.489-1.059 0-.968 1.081-1.339 2.017-1.339.838 0 1.231.181 1.74.42-.15 1.158-1.166 1.978-2.268 1.978m10.8-6.576-2.187 5.418h-.065l-2.261-5.418h-2.052l3.398 7.572-1.939 4.214h1.988l5.235-11.786zM109.095 30h1.908V17.5h-1.908z"/>
        <path fill="url(#a)" d="M10.647 7.539c-.3.307-.474.786-.474 1.406V31.06c0 .62.174 1.099.473 1.406l.074.068 12.643-12.388v-.292L10.72 7.466z"/>
        <path fill="url(#b)" d="m27.573 24.278-4.21-4.132v-.292l4.215-4.131.094.053 4.992 2.784c1.424.79 1.424 2.09 0 2.885l-4.992 2.779z"/>
        <path fill="url(#c)" d="M27.671 24.224 23.362 20 10.645 32.466c.473.488 1.245.547 2.122.059z"/>
        <path fill="url(#d)" d="M27.671 15.776 12.767 7.475c-.877-.482-1.649-.424-2.122.064L23.362 20z"/>
        <path fill="#F4F4F4" d="M49.44 11.45v.948h-4.654v-.949zm-4.325 0v2.517h-1.144l-.057-2.518zm5.224 0-.092 2.522h-1.119v-2.523zM48.689 6v.954h-3.008V6zm.891 0v6.398h-1.202V6zm-4.092 0h1.206l-.162 2.602a8 8 0 0 1-.132 1.12q-.092.492-.228.875-.135.383-.302.672a3 3 0 0 1-.72.861 5 5 0 0 1-.372.268h-.671v-.949h.289q.127-.11.268-.307.144-.198.276-.523.136-.325.237-.822t.145-1.195zM50.98 10.07v-.093q0-.524.148-.962.15-.444.434-.77.285-.324.698-.505.412-.184.938-.184.536 0 .948.184.416.18.701.506.285.325.435.769.15.439.149.962v.092q0 .519-.15.963-.148.44-.434.769-.285.325-.697.505-.413.18-.943.18-.526 0-.943-.18a1.95 1.95 0 0 1-.702-.505 2.3 2.3 0 0 1-.434-.77q-.15-.443-.149-.962m1.157-.093v.092q0 .312.061.585.062.272.189.479a.95.95 0 0 0 .329.325 1 1 0 0 0 .491.114.96.96 0 0 0 .483-.114.95.95 0 0 0 .329-.325q.131-.207.193-.48.06-.271.06-.584v-.092q0-.307-.06-.576a1.5 1.5 0 0 0-.194-.479.92.92 0 0 0-.82-.452.91.91 0 0 0-.811.452 1.6 1.6 0 0 0-.189.48 2.6 2.6 0 0 0-.061.575M58.4 11.572q.246 0 .439-.096a.77.77 0 0 0 .306-.273.77.77 0 0 0 .128-.409h1.092q-.01.484-.272.866-.264.382-.702.607-.434.22-.974.22-.548 0-.956-.185a1.9 1.9 0 0 1-.68-.514 2.3 2.3 0 0 1-.403-.765q-.132-.434-.132-.932v-.14q0-.497.132-.932.135-.435.404-.765.27-.329.68-.514a2.3 2.3 0 0 1 .951-.184q.575 0 1.009.224.438.224.684.633.25.408.259.962h-1.092a1.06 1.06 0 0 0-.114-.457.84.84 0 0 0-.299-.325.86.86 0 0 0-.469-.123.9.9 0 0 0-.491.123.85.85 0 0 0-.303.338q-.105.21-.149.475-.04.259-.04.545v.14q0 .29.04.554.045.264.15.475a.86.86 0 0 0 .302.33.93.93 0 0 0 .5.122M63.619 7.644v4.754h-1.162V7.644zm1.544 0v.905h-4.224v-.905zM67.465 11.871l1.272-4.227h1.241l-1.903 5.475q-.066.176-.171.383a1.6 1.6 0 0 1-.272.39 1.3 1.3 0 0 1-.43.308q-.255.12-.618.119a1.6 1.6 0 0 1-.281-.022 4 4 0 0 1-.259-.057v-.87a1 1 0 0 0 .101.004 1.5 1.5 0 0 0 .526-.057.55.55 0 0 0 .268-.19 1 1 0 0 0 .175-.333zm-.627-4.227 1.075 3.502.188 1.226-.798.145-1.715-4.873zM73.904 7.644v.918h-2.32v-.918zm-2.014 0v4.754h-1.162V7.644zm2.89 0v4.754h-1.166V7.644zM79.254 9.595v.91H76.82v-.91zm-2.07-1.951v4.754h-1.162V7.644zm2.882 0v4.754h-1.167V7.644zM81.092 10.07v-.093q0-.524.149-.962.15-.444.434-.77.285-.324.697-.505.412-.184.939-.184.535 0 .947.184.417.18.702.506.285.325.434.769.15.439.15.962v.092q0 .519-.15.963-.15.44-.434.769-.285.325-.697.505-.413.18-.943.18-.526 0-.943-.18a1.95 1.95 0 0 1-.702-.505 2.3 2.3 0 0 1-.434-.77q-.15-.443-.15-.962m1.158-.093v.092q0 .312.061.585.06.272.189.479a.95.95 0 0 0 .329.325 1 1 0 0 0 .49.114.96.96 0 0 0 .483-.114.94.94 0 0 0 .33-.325q.13-.207.192-.48a2.7 2.7 0 0 0 .061-.584v-.092q0-.307-.06-.576a1.5 1.5 0 0 0-.194-.479.92.92 0 0 0-.82-.452.91.91 0 0 0-.811.452 1.6 1.6 0 0 0-.189.48q-.06.267-.061.575M91.315 10.386H89.81l-.01-.787h1.238q.276 0 .451-.057a.5.5 0 0 0 .26-.171.44.44 0 0 0 .087-.277.5.5 0 0 0-.053-.242.4.4 0 0 0-.158-.171.7.7 0 0 0-.258-.097 1.6 1.6 0 0 0-.36-.035h-.785v3.85H89.06V7.643h1.947q.46 0 .829.083.368.079.627.242.258.162.395.413.14.246.14.58a.9.9 0 0 1-.096.413q-.097.193-.285.343-.189.15-.465.246-.277.092-.632.114zm0 2.012h-1.816l.43-.905h1.386q.255 0 .421-.061a.5.5 0 0 0 .246-.19.52.52 0 0 0 .083-.298.53.53 0 0 0-.079-.295.46.46 0 0 0-.241-.193 1.1 1.1 0 0 0-.43-.07h-1.197l.008-.787h1.39l.308.312q.474.03.785.194.31.158.465.404a.97.97 0 0 1 .153.531q0 .339-.127.594-.128.255-.373.426a1.9 1.9 0 0 1-.6.255 3.6 3.6 0 0 1-.812.083"/><defs><linearGradient id="a" x1="22.241" x2="5.462" y1="31.29" y2="14.172" gradientUnits="userSpaceOnUse"><stop stop-color="#00A0FF"/><stop offset=".007" stop-color="#00A1FF"/><stop offset=".26" stop-color="#00BEFF"/><stop offset=".512" stop-color="#00D2FF"/><stop offset=".76" stop-color="#00DFFF"/><stop offset="1" stop-color="#00E3FF"/></linearGradient><linearGradient id="b" x1="34.519" x2="9.832" y1="19.999" y2="19.999" gradientUnits="userSpaceOnUse"><stop stop-color="#FFE000"/><stop offset=".409" stop-color="#FFBD00"/><stop offset=".775" stop-color="orange"/><stop offset="1" stop-color="#FF9C00"/></linearGradient><linearGradient id="c" x1="25.328" x2="2.574" y1="17.704" y2="-5.51" gradientUnits="userSpaceOnUse"><stop stop-color="#FF3A44"/><stop offset="1" stop-color="#C31162"/></linearGradient><linearGradient id="d" x1="7.444" x2="17.605" y1="39.824" y2="29.458" gradientUnits="userSpaceOnUse"><stop stop-color="#32A071"/><stop offset=".069" stop-color="#2DA771"/><stop offset=".476" stop-color="#15CF74"/><stop offset=".801" stop-color="#06E775"/><stop offset="1" stop-color="#00F076"/></linearGradient></defs>
    </symbol>

    <symbol id="tg">
        <path fill="#393939" d="M0 8a8 8 0 0 1 8-8h24a8 8 0 0 1 8 8v24a8 8 0 0 1-8 8H8a8 8 0 0 1-8-8z"/>
        <path fill="currentColor" d="M27.465 12.132s1.666-.649 1.527.928c-.047.65-.463 2.922-.787 5.38l-1.11 7.281s-.092 1.067-.925 1.252c-.832.186-2.081-.649-2.312-.834-.185-.14-3.47-2.227-4.626-3.247-.323-.278-.694-.835.047-1.484l4.856-4.638c.555-.556 1.11-1.855-1.202-.278l-6.476 4.406s-.74.464-2.128.046l-3.006-.927s-1.11-.696.786-1.392c4.626-2.18 10.315-4.406 15.356-6.493"/>
    </symbol>

    <symbol id="vk">
        <path fill="#393939" d="M0 8a8 8 0 0 1 8-8h24a8 8 0 0 1 8 8v24a8 8 0 0 1-8 8H8a8 8 0 0 1-8-8z"/>
        <path fill="currentColor" d="M22.11 19.596c-.365-.138-.365-.663-.388-1.029-.091-1.303.366-3.291-.183-4.137-.388-.503-2.263-.457-3.405-.388-.32.046-.709.114-.983.251-.274.138-.549.366-.549.572 0 .297.686.251.937.64.274.411.274 1.302.274 2.034 0 .845-.137 1.966-.48 2.011-.525.023-.822-.503-1.096-.892a15.3 15.3 0 0 1-1.51-2.606c-.205-.48-.32-1.005-.617-1.21-.457-.321-1.28-.344-2.08-.321-.731.022-1.783-.069-1.989.366-.16.48.183.936.366 1.326.937 2.034 1.943 3.817 3.178 5.508 1.143 1.577 2.216 2.834 4.32 3.497.594.183 3.2.709 3.725 0 .183-.274.138-.892.229-1.349s.205-.914.64-.937c.366-.022.571.297.8.526.252.252.457.457.64.686.435.435.892 1.029 1.44 1.258.754.32 1.92.228 3.017.182.892-.022 1.532-.205 1.6-.731.047-.412-.411-1.006-.685-1.349-.686-.845-1.006-1.097-1.783-1.875-.343-.343-.778-.708-.778-1.12-.023-.25.183-.48.366-.73.8-1.19 1.6-2.035 2.332-3.27.205-.365.686-1.21.503-1.622-.206-.458-1.349-.32-2.058-.32-.914 0-2.103-.07-2.332.113-.434.297-.617.778-.822 1.235-.457 1.052-1.075 2.126-1.715 2.926-.229.274-.663.845-.914.754"/>
    </symbol>

    <symbol id="ws">
            <path fill="#393939" d="M0 8a8 8 0 0 1 8-8h24a8 8 0 0 1 8 8v24a8 8 0 0 1-8 8H8a8 8 0 0 1-8-8z"/>
            <path fill="currentColor" d="M20.375 10A9.36 9.36 0 0 0 11 19.375c0 2.125.688 4.125 2 5.75l-1.312 4c-.063.25 0 .5.187.688.063.125.25.187.375.187.063 0 .188 0 .25-.062L16.813 28q1.687.75 3.562.75a9.36 9.36 0 0 0 9.375-9.375A9.36 9.36 0 0 0 20.375 10m5.438 12.813c-.25.75-1.188 1.375-2 1.5-.188.062-.375.062-.625.062-.5 0-1.25-.125-2.563-.687-1.5-.625-3-1.938-4.187-3.625V20c-.375-.562-1.063-1.625-1.063-2.75 0-1.375.688-2.062.938-2.375.312-.312.75-.5 1.25-.5h.312c.438 0 .75.125 1.063.75l.25.5c.187.5.437 1.063.5 1.125.187.375.187.688 0 1-.063.188-.188.313-.313.438q-.094.187-.187.187l-.125.125c.187.313.562.875 1.062 1.313.75.687 1.313.875 1.625 1 .125-.125.25-.375.438-.563l.062-.125c.313-.437.813-.562 1.313-.375.25.125 1.625.75 1.625.75l.125.063c.187.125.437.187.562.437.25.563.063 1.375-.062 1.813"/>
    </symbol>

    <symbol id="visa">
        <path fill="#393939" d="M0 4a4 4 0 0 1 4-4h40a4 4 0 0 1 4 4v21a4 4 0 0 1-4 4H4a4 4 0 0 1-4-4z"/>
        <path fill="#A6A6A6" d="m23.844 9.858-2.137 10.318h-2.586l2.14-10.318zm10.88 6.662 1.36-3.875.784 3.875zm2.884 3.656H40L37.913 9.858h-2.218c-.49 0-.91.31-1.087.75l-.004.007-3.878 9.56h2.714l.54-1.541h3.317zm-6.749-3.368c.011-2.724-3.648-2.874-3.622-4.091.009-.37.349-.765 1.096-.865a4.73 4.73 0 0 1 2.579.475l-.03-.014.454-2.188a6.6 6.6 0 0 0-2.417-.458h-.001c-2.557 0-4.355 1.404-4.37 3.412-.017 1.485 1.283 2.312 2.263 2.808 1.009.505 1.347.83 1.342 1.28-.007.695-.803.999-1.547 1.01q-.054.003-.117.002c-.93 0-1.804-.241-2.568-.668l.029.015-.468 2.26c.838.347 1.81.547 2.828.547h.048-.002c2.716 0 4.493-1.384 4.502-3.529zm-10.71-6.95L15.96 20.176h-2.733l-2.061-8.236a1.13 1.13 0 0 0-.609-.903l-.006-.003a10.3 10.3 0 0 0-2.48-.866L8 10.156l.062-.299h4.4c.6 0 1.098.453 1.19 1.044l.002.007 1.09 5.971 2.69-7.023z"/>
    </symbol>

    <symbol id="mastercard">
        <path fill="#393939" d="M0 4a4 4 0 0 1 4-4h40a4 4 0 0 1 4 4v21a4 4 0 0 1-4 4H4a4 4 0 0 1-4-4z"/>
        <path fill="#A6A6A6" d="M24.119 9.341a6.6 6.6 0 0 1 1.877 2.29c.44.894.67 1.875.669 2.869 0 .993-.229 1.974-.67 2.867a6.6 6.6 0 0 1-1.876 2.29 6.6 6.6 0 0 1-1.877-2.29 6.5 6.5 0 0 1-.67-2.868c0-.994.229-1.974.67-2.868a6.6 6.6 0 0 1 1.877-2.29m-.854-.562a7.5 7.5 0 0 0-1.977 2.572 7.4 7.4 0 0 0-.7 3.15 7.4 7.4 0 0 0 .7 3.15 7.5 7.5 0 0 0 1.976 2.572 6.75 6.75 0 0 1-6.633-.06 6.6 6.6 0 0 1-2.415-2.4 6.5 6.5 0 0 1-.882-3.265c0-1.145.305-2.27.884-3.264a6.6 6.6 0 0 1 2.416-2.399 6.75 6.75 0 0 1 6.631-.056m1.709 11.444a7.5 7.5 0 0 0 1.976-2.572c.462-.987.7-2.062.7-3.15a7.4 7.4 0 0 0-.7-3.15 7.5 7.5 0 0 0-1.978-2.572 6.75 6.75 0 0 1 6.632.056 6.6 6.6 0 0 1 2.417 2.4c.579.993.884 2.118.884 3.263s-.304 2.271-.883 3.265a6.6 6.6 0 0 1-2.415 2.4 6.75 6.75 0 0 1-6.632.06z"/>
    </symbol>

    <symbol id="mirpay">
        <path fill="#393939" d="M0 4a4 4 0 0 1 4-4h40a4 4 0 0 1 4 4v21a4 4 0 0 1-4 4H4a4 4 0 0 1-4-4z"/><g fill="#A6A6A6" clip-path="url(#a)"><path d="M31.086 13.403v5.035h2.76v-2.984h3.128c1.315-.009 2.433-.862 2.856-2.05zM30.718 9.255c.161 2.055 2.084 3.682 4.43 3.682h4.797q.055-.28.055-.583c0-1.706-1.357-3.085-3.036-3.1zM26.633 12.886a.17.17 0 0 1 .147-.089c.092 0 .161.075.166.163v5.43h2.76V9.256h-2.76c-.35.013-.745.27-.892.592L23.86 14.62q-.009.027-.023.056a.184.184 0 0 1-.336-.108V9.255h-2.76v9.136h2.76c.345-.019.731-.275.878-.592l2.254-4.9c-.004-.004 0-.009 0-.013M16.33 13.044l-1.614 5.347h-1.987l-1.61-5.351a.18.18 0 0 0-.359.033v5.313H8V9.25h3.0730000000000004c.506 0 1.04.4 1.186.89l1.343 4.452c.07.224.175.219.244 0l1.343-4.452c.147-.494.681-.89 1.187-.89h3.0730000000000004v9.136h-2.76v-5.318a.18.18 0 0 0-.18-.182.19.19 0 0 0-.179.158"/></g><defs><clipPath id="a"><path fill="#fff" d="M8 4h32v21H8z"/></clipPath></defs>
    </symbol>

</svg>