<svg xmlns="http://www.w3.org/2000/svg" width="137" height="22" fill="none">
    <path fill="#1C1C1C" d="M119.711 3.998h4.44v4.128l-.168.576v3.552l.168 1.056v8.328h-4.44zm2.976 6.84q.36-2.208 1.368-3.816t2.544-2.496q1.56-.912 3.456-.912 2.016 0 3.528.912 1.536.912 2.4 2.544.864 1.608.864 3.768t-.864 3.792a6.4 6.4 0 0 1-2.4 2.52q-1.512.912-3.528.912-1.92 0-3.456-.888-1.512-.912-2.52-2.52-1.008-1.632-1.392-3.816m9.648 0q0-1.104-.456-1.944a3.3 3.3 0 0 0-1.272-1.344q-.792-.504-1.824-.504-1.056 0-2.016.504-.96.48-1.68 1.344a6.2 6.2 0 0 0-1.08 1.944 6.5 6.5 0 0 0 1.08 1.968q.72.84 1.68 1.344.96.48 2.016.48 1.032 0 1.824-.48a3.54 3.54 0 0 0 1.272-1.344q.456-.864.456-1.968m-32.007-6.84h4.44v4.128l-.168.576v3.552l.168 1.056v8.328h-4.44zm2.976 6.84q.36-2.208 1.368-3.816t2.544-2.496q1.56-.912 3.456-.912 2.016 0 3.528.912 1.536.912 2.4 2.544.864 1.608.864 3.768t-.864 3.792a6.4 6.4 0 0 1-2.4 2.52q-1.512.912-3.528.912-1.92 0-3.456-.888-1.512-.912-2.52-2.52-1.008-1.632-1.392-3.816m9.648 0q0-1.104-.456-1.944a3.3 3.3 0 0 0-1.272-1.344q-.792-.504-1.824-.504-1.056 0-2.016.504-.96.48-1.68 1.344a6.2 6.2 0 0 0-1.08 1.944 6.5 6.5 0 0 0 1.08 1.968q.72.84 1.68 1.344.96.48 2.016.48 1.032 0 1.824-.48a3.54 3.54 0 0 0 1.272-1.344q.456-.864.456-1.968m-19.786 6.84-.6-4.968.648-1.872-.648-1.848.6-4.992h4.632l-.84 6.84.84 6.84zm1.104-6.84q-.36 2.184-1.368 3.816-1.008 1.608-2.544 2.52-1.536.888-3.456.888-2.016 0-3.552-.912a6.44 6.44 0 0 1-2.376-2.52q-.864-1.632-.864-3.792t.864-3.768q.864-1.632 2.376-2.544 1.536-.912 3.552-.912 1.92 0 3.456.912 1.536.888 2.544 2.496 1.032 1.608 1.368 3.816m-9.648 0q0 1.104.456 1.968.456.84 1.248 1.344.816.48 1.872.48t1.992-.48q.96-.504 1.68-1.344.72-.864 1.08-1.968a5.6 5.6 0 0 0-1.08-1.944 5.2 5.2 0 0 0-1.68-1.344 4.14 4.14 0 0 0-1.992-.504q-1.056 0-1.872.504-.792.48-1.248 1.344-.456.84-.456 1.944m-14.764 7.224q-2.592 0-4.536-.912t-3.024-2.544-1.08-3.768q0-2.16 1.08-3.768 1.08-1.632 3.024-2.544 1.968-.912 4.536-.912 2.592 0 4.536.912 1.968.912 3.048 2.544 1.08 1.608 1.08 3.768t-1.08 3.792q-1.08 1.608-3.048 2.52-1.944.912-4.536.912m0-3.36q1.32 0 2.232-.456a3.3 3.3 0 0 0 1.416-1.344q.504-.864.504-2.064t-.504-2.064a3.15 3.15 0 0 0-1.416-1.32q-.912-.48-2.232-.48-1.272 0-2.208.48a3.3 3.3 0 0 0-1.44 1.32q-.504.864-.504 2.064t.504 2.064a3.44 3.44 0 0 0 1.44 1.344q.936.456 2.208.456M46.836 7.31V5.366l2.832-1.032L51.588.35h2.544v3.648h5.904V7.31h-5.904v4.512q0 1.536.624 2.16.624.6 2.232.6 1.032 0 1.8-.168a8.6 8.6 0 0 0 1.488-.504v3.384q-.72.288-1.896.528-1.152.24-2.4.24-2.184 0-3.6-.696-1.392-.696-2.064-1.944-.648-1.272-.648-2.976V7.31zm-.71 5.976q0 1.536-.912 2.616-.888 1.056-2.616 1.608t-4.2.552q-2.52 0-4.416-.624t-2.952-1.752-1.128-2.616h4.536q.144.6.672 1.056.552.456 1.416.696.864.216 2.04.216 1.584 0 2.4-.336t.816-1.008q0-.504-.6-.768-.576-.264-2.088-.384l-2.496-.192q-2.352-.168-3.744-.744t-1.992-1.464a3.6 3.6 0 0 1-.576-1.992q0-1.512.936-2.52.96-1.008 2.64-1.512t3.936-.504 4.008.6q1.776.6 2.832 1.656 1.08 1.056 1.224 2.472h-4.536q-.096-.48-.528-.888-.408-.408-1.2-.648-.768-.264-2.016-.264-1.416 0-2.16.312t-.744.912q0 .456.456.72t1.728.384l3.24.24q2.304.192 3.6.744 1.32.528 1.872 1.392t.552 2.04m-25.021 4.776q-2.448 0-4.392-.912-1.92-.912-3.024-2.544t-1.104-3.816q0-2.136 1.056-3.744t2.904-2.52q1.872-.912 4.224-.912 2.4 0 4.128 1.056t2.664 2.976.936 4.512H16.161V9.35h9.888l-1.608 1.008q-.072-1.128-.552-1.896a3.04 3.04 0 0 0-1.224-1.2q-.768-.432-1.824-.432-1.152 0-1.992.456t-1.32 1.272q-.456.816-.456 1.896 0 1.368.6 2.328.624.96 1.776 1.464 1.176.504 2.856.504 1.536 0 3.072-.408a10.5 10.5 0 0 0 2.76-1.2v2.904q-1.392.96-3.192 1.488-1.776.528-3.84.528M0 3.998h4.512l.816 4.92v8.76H.864v-9.12zm11.856-.192v3.84a12 12 0 0 0-2.448-.288q-1.152 0-2.088.48-.912.456-1.464 1.464-.528 1.008-.528 2.616l-.888-1.104q.168-1.464.552-2.76a8.1 8.1 0 0 1 1.056-2.28Q6.72 4.766 7.704 4.19q1.008-.576 2.424-.576.408 0 .864.048t.864.144"/>
</svg>