<svg xmlns="http://www.w3.org/2000/svg" width="48" height="29" fill="none">
    <path fill="#393939" d="M0 4a4 4 0 0 1 4-4h40a4 4 0 0 1 4 4v21a4 4 0 0 1-4 4H4a4 4 0 0 1-4-4z"/>
    <path fill="#A6A6A6" d="M24.119 9.341a6.6 6.6 0 0 1 1.877 2.29c.44.894.67 1.875.669 2.869 0 .993-.229 1.974-.67 2.867a6.6 6.6 0 0 1-1.876 2.29 6.6 6.6 0 0 1-1.877-2.29 6.5 6.5 0 0 1-.67-2.868c0-.994.229-1.974.67-2.868a6.6 6.6 0 0 1 1.877-2.29m-.854-.562a7.5 7.5 0 0 0-1.977 2.572 7.4 7.4 0 0 0-.7 3.15 7.4 7.4 0 0 0 .7 3.15 7.5 7.5 0 0 0 1.976 2.572 6.75 6.75 0 0 1-6.633-.06 6.6 6.6 0 0 1-2.415-2.4 6.5 6.5 0 0 1-.882-3.265c0-1.145.305-2.27.884-3.264a6.6 6.6 0 0 1 2.416-2.399 6.75 6.75 0 0 1 6.631-.056m1.709 11.444a7.5 7.5 0 0 0 1.976-2.572c.462-.987.7-2.062.7-3.15a7.4 7.4 0 0 0-.7-3.15 7.5 7.5 0 0 0-1.978-2.572 6.75 6.75 0 0 1 6.632.056 6.6 6.6 0 0 1 2.417 2.4c.579.993.884 2.118.884 3.263s-.304 2.271-.883 3.265a6.6 6.6 0 0 1-2.415 2.4 6.75 6.75 0 0 1-6.632.06z"/>
</svg>