<svg xmlns="http://www.w3.org/2000/svg" width="48" height="29" fill="none">
    <path fill="#393939" d="M0 4a4 4 0 0 1 4-4h40a4 4 0 0 1 4 4v21a4 4 0 0 1-4 4H4a4 4 0 0 1-4-4z"/><g fill="#A6A6A6" clip-path="url(#a)"><path d="M31.086 13.403v5.035h2.76v-2.984h3.128c1.315-.009 2.433-.862 2.856-2.05zM30.718 9.255c.161 2.055 2.084 3.682 4.43 3.682h4.797q.055-.28.055-.583c0-1.706-1.357-3.085-3.036-3.1zM26.633 12.886a.17.17 0 0 1 .147-.089c.092 0 .161.075.166.163v5.43h2.76V9.256h-2.76c-.35.013-.745.27-.892.592L23.86 14.62q-.009.027-.023.056a.184.184 0 0 1-.336-.108V9.255h-2.76v9.136h2.76c.345-.019.731-.275.878-.592l2.254-4.9c-.004-.004 0-.009 0-.013M16.33 13.044l-1.614 5.347h-1.987l-1.61-5.351a.18.18 0 0 0-.359.033v5.313H8V9.25h3.0730000000000004c.506 0 1.04.4 1.186.89l1.343 4.452c.07.224.175.219.244 0l1.343-4.452c.147-.494.681-.89 1.187-.89h3.0730000000000004v9.136h-2.76v-5.318a.18.18 0 0 0-.18-.182.19.19 0 0 0-.179.158"/></g><defs><clipPath id="a"><path fill="#fff" d="M8 4h32v21H8z"/></clipPath></defs>
</svg>