<svg xmlns="http://www.w3.org/2000/svg" width="48" height="29" fill="none">
    <path fill="#393939" d="M0 4a4 4 0 0 1 4-4h40a4 4 0 0 1 4 4v21a4 4 0 0 1-4 4H4a4 4 0 0 1-4-4z"/>
    <path fill="#A6A6A6" d="m23.844 9.858-2.137 10.318h-2.586l2.14-10.318zm10.88 6.662 1.36-3.875.784 3.875zm2.884 3.656H40L37.913 9.858h-2.218c-.49 0-.91.31-1.087.75l-.004.007-3.878 9.56h2.714l.54-1.541h3.317zm-6.749-3.368c.011-2.724-3.648-2.874-3.622-4.091.009-.37.349-.765 1.096-.865a4.73 4.73 0 0 1 2.579.475l-.03-.014.454-2.188a6.6 6.6 0 0 0-2.417-.458h-.001c-2.557 0-4.355 1.404-4.37 3.412-.017 1.485 1.283 2.312 2.263 2.808 1.009.505 1.347.83 1.342 1.28-.007.695-.803.999-1.547 1.01q-.054.003-.117.002c-.93 0-1.804-.241-2.568-.668l.029.015-.468 2.26c.838.347 1.81.547 2.828.547h.048-.002c2.716 0 4.493-1.384 4.502-3.529zm-10.71-6.95L15.96 20.176h-2.733l-2.061-8.236a1.13 1.13 0 0 0-.609-.903l-.006-.003a10.3 10.3 0 0 0-2.48-.866L8 10.156l.062-.299h4.4c.6 0 1.098.453 1.19 1.044l.002.007 1.09 5.971 2.69-7.023z"/>
</svg>