<svg xmlns="http://www.w3.org/2000/svg" width="138" height="40" fill="none">
    <path fill="#A6A6A6" d="M132.889.801c2.366 0 4.292 1.884 4.292 4.199v30c0 2.315-1.926 4.199-4.292 4.199H5.111C2.745 39.199.82 37.315.82 35V5C.82 2.685 2.745.801 5.111.801zm0-.801H5.111C2.301 0 0 2.251 0 5v30c0 2.749 2.301 5 5.111 5H132.89c2.81 0 5.111-2.251 5.111-5V5c0-2.749-2.301-5-5.111-5"/>
    <path fill="#A6A6A6" d="M30.798 19.784c-.03-3.223 2.697-4.791 2.822-4.864-1.545-2.203-3.939-2.504-4.78-2.528-2.01-.207-3.961 1.177-4.985 1.177-1.045 0-2.622-1.157-4.322-1.123-2.188.033-4.234 1.272-5.357 3.196-2.316 3.923-.589 9.688 1.63 12.859 1.11 1.553 2.408 3.287 4.106 3.226 1.661-.067 2.282-1.036 4.286-1.036 1.986 0 2.569 1.036 4.3.997 1.783-.028 2.906-1.56 3.977-3.127 1.283-1.78 1.798-3.533 1.819-3.623-.042-.014-3.463-1.291-3.496-5.154M27.526 10.306c.894-1.093 1.505-2.58 1.335-4.089-1.293.056-2.91.875-3.841 1.944-.824.942-1.56 2.486-1.37 3.938 1.453.106 2.944-.717 3.876-1.793M54.837 31.504h-2.321l-1.272-3.91h-4.42l-1.211 3.91h-2.26l4.379-13.308h2.705zm-3.976-5.55-1.15-3.474q-.182-.533-.686-2.507h-.041q-.202.85-.646 2.507l-1.13 3.475zM66.099 26.588q0 2.448-1.353 3.869-1.211 1.264-3.007 1.264-1.938 0-2.785-1.362h-.041v5.055h-2.18V25.067q0-1.54-.08-3.16h1.916l.122 1.522h.04q1.091-1.718 3.31-1.718 1.737 0 2.897 1.342 1.161 1.344 1.16 3.535m-2.22.078q0-1.401-.646-2.31-.708-.948-1.898-.948-.807.001-1.462.523-.657.525-.858 1.373-.102.395-.101.65v1.6q0 1.047.656 1.768.657.72 1.705.72 1.23 0 1.917-.927.687-.929.687-2.45M77.381 26.588q0 2.448-1.353 3.869-1.211 1.264-3.006 1.264-1.939 0-2.785-1.362h-.04v5.055h-2.18V25.067q0-1.54-.081-3.16h1.917l.121 1.522h.041q1.089-1.718 3.31-1.718 1.734 0 2.897 1.342 1.159 1.344 1.16 3.535m-2.22.078q0-1.401-.647-2.31-.706-.948-1.896-.948a2.3 2.3 0 0 0-1.464.523q-.656.525-.857 1.373-.1.395-.1.65v1.6q0 1.047.653 1.768.656.72 1.708.72 1.231 0 1.916-.927.687-.929.687-2.45M89.996 27.772q0 1.698-1.209 2.764-1.328 1.165-3.705 1.165-2.194 0-3.526-.829l.505-1.777q1.435.85 3.15.85 1.232 0 1.92-.544.684-.544.684-1.454 0-.81-.565-1.364-.564-.553-1.877-1.029-3.573-1.304-3.572-3.816 0-1.642 1.253-2.689 1.248-1.048 3.33-1.048 1.856 0 3.087.632l-.545 1.738q-1.148-.612-2.603-.612-1.151 0-1.795.553-.545.493-.545 1.205 0 .79.624 1.303.544.474 1.98 1.027 1.754.691 2.583 1.618.826.925.826 2.307M97.201 23.508H94.8v4.659q0 1.777 1.272 1.777.584 0 .968-.099l.06 1.619q-.645.236-1.695.236-1.29 0-2.019-.77-.726-.77-.727-2.587v-4.837h-1.43v-1.6h1.43v-1.757l2.14-.632v2.389h2.403zM108.04 26.627q-.001 2.212-1.292 3.633-1.355 1.461-3.594 1.46-2.16 0-3.44-1.4-1.282-1.402-1.282-3.534 0-2.231 1.322-3.652 1.32-1.422 3.561-1.422 2.16 0 3.471 1.402 1.255 1.36 1.254 3.513m-2.261.069q0-1.328-.585-2.277-.686-1.148-1.957-1.148-1.313 0-1.998 1.148-.586.95-.585 2.317-.001 1.328.585 2.276.705 1.149 1.979 1.148 1.249 0 1.956-1.168.604-.969.605-2.296M115.124 23.783a4 4 0 0 0-.687-.06q-1.151 0-1.777.85-.545.75-.545 1.896v5.035h-2.178l.021-6.574q0-1.659-.082-3.021h1.898l.08 1.836h.06q.345-.948 1.09-1.52a2.67 2.67 0 0 1 1.575-.514q.302 0 .545.039zM124.871 26.252q0 .573-.08.967h-6.538q.038 1.423.948 2.173.827.67 2.139.671 1.453 0 2.645-.454l.342 1.48q-1.392.593-3.289.593-2.281 0-3.584-1.313-1.3-1.313-1.301-3.524 0-2.171 1.212-3.613 1.271-1.539 3.43-1.539 2.12 0 3.211 1.539.864 1.224.865 3.02m-2.079-.553q.022-.948-.423-1.639-.566-.89-1.737-.889-1.07 0-1.734.869-.545.692-.645 1.658h4.539zM45.547 9.718h.866c.795 0 1.27.364 1.27.98 0 .606-.501 1.02-1.244 1.02-.773 0-1.3-.374-1.35-.967H44c.057 1.15 1.024 1.907 2.435 1.907 1.384 0 2.412-.809 2.412-1.894 0-.853-.532-1.46-1.384-1.56v-.036c.703-.158 1.186-.747 1.186-1.459C48.65 6.703 47.753 6 46.456 6c-1.362 0-2.245.725-2.302 1.88h1.059c.048-.597.51-.966 1.213-.966.694 0 1.125.352 1.125.923s-.47.967-1.16.967h-.844zM51.545 11.748c-.474 0-.79-.242-.79-.624 0-.37.302-.606.83-.642l1.076-.066v.357c0 .562-.496.975-1.116.975m-.33.826c.598 0 1.183-.312 1.45-.817h.023v.742h1.054V9.292c0-.936-.751-1.546-1.907-1.546-1.186 0-1.929.624-1.977 1.494h1.015c.07-.387.4-.637.918-.637.54 0 .87.28.87.769v.334l-1.23.07c-1.134.07-1.771.567-1.771 1.393 0 .84.655 1.406 1.556 1.406M58.04 8.685v-.844h-3.16V12.5h1.09V8.686zM61.551 7.762c-.677 0-1.204.343-1.468.884h-.021V7.84h-1.068v6.192h1.094v-2.307h.022c.255.523.782.848 1.459.848 1.169 0 1.916-.918 1.916-2.404 0-1.49-.752-2.408-1.934-2.408m-.334 3.916c-.68 0-1.133-.594-1.138-1.508.005-.905.457-1.507 1.138-1.507.708 0 1.147.589 1.147 1.507 0 .923-.44 1.508-1.147 1.508M64.86 14.231c1.064 0 1.578-.391 1.978-1.547l1.683-4.843h-1.152l-1.098 3.727h-.018L65.155 7.84h-1.196l1.657 4.663c.004.013-.061.246-.061.26-.124.43-.357.601-.81.601-.065 0-.258-.004-.316-.017v.865c.058.014.37.018.431.018M71.034 12.592c1.2 0 1.965-.58 1.965-1.481 0-.523-.308-.905-.892-1.046v-.035c.448-.119.729-.51.729-.98 0-.8-.642-1.305-1.815-1.305-1.09 0-1.802.54-1.894 1.42h1.037c.062-.361.378-.572.857-.572.505 0 .747.233.747.567 0 .378-.26.562-.756.562h-.641v.756h.663c.585 0 .88.193.88.615 0 .378-.317.637-.88.637-.51 0-.844-.215-.94-.615H69.03c.088.919.857 1.477 2.004 1.477M75.06 12.5l2.025-3.134h.036V12.5h1.072V7.841H77.12l-2.026 3.112h-.035V7.84h-1.073V12.5zM83 7.841h-3.95v.844h1.432V12.5h1.086V8.686H83zM85.782 8.593c.628 0 1.05.461 1.072 1.12H84.68c.044-.65.488-1.12 1.103-1.12m1.077 2.513c-.12.387-.506.642-1.016.642-.716 0-1.173-.5-1.173-1.248v-.066h3.256v-.356c0-1.415-.826-2.333-2.149-2.333-1.344 0-2.197.97-2.197 2.443 0 1.485.844 2.404 2.241 2.404 1.103 0 1.92-.607 2.061-1.486zM92.826 8.584c.444 0 .69.207.69.571 0 .387-.264.59-.774.59h-.8V8.583zm-.018 1.854c.59 0 .892.225.892.66 0 .426-.285.659-.804.659h-.953v-1.319zM90.87 12.5h2.246c1.033 0 1.674-.522 1.674-1.344 0-.585-.413-1.015-1.024-1.094v-.036c.462-.079.818-.514.818-1.002 0-.738-.563-1.182-1.503-1.182h-2.21z"/>
</svg>