<svg xmlns="http://www.w3.org/2000/svg" width="138" height="40" fill="none">
    <path fill="#F4F4F4" d="M132.628.801c2.362 0 4.284 1.884 4.284 4.199v30c0 2.315-1.922 4.199-4.284 4.199H5.101C2.74 39.199.817 37.315.817 35V5C.817 2.685 2.74.801 5.101.801zm0-.801H5.101C2.297 0 0 2.251 0 5v30c0 2.749 2.297 5 5.101 5h127.527c2.805 0 5.101-2.251 5.101-5V5c0-2.749-2.296-5-5.101-5"/>
    <path fill="#F4F4F4" d="M69.512 21.753c-2.396 0-4.354 1.787-4.354 4.253 0 2.447 1.958 4.253 4.354 4.253 2.401 0 4.359-1.806 4.359-4.253 0-2.466-1.957-4.253-4.359-4.253m0 6.83c-1.315 0-2.446-1.063-2.446-2.577 0-1.533 1.131-2.579 2.446-2.579s2.451 1.046 2.451 2.58c0 1.513-1.136 2.577-2.45 2.577m-9.5-6.83c-2.4 0-4.353 1.787-4.353 4.253 0 2.447 1.952 4.253 4.354 4.253 2.4 0 4.353-1.806 4.353-4.253 0-2.466-1.953-4.253-4.353-4.253m0 6.83c-1.315 0-2.45-1.063-2.45-2.577 0-1.533 1.135-2.579 2.45-2.579s2.447 1.046 2.447 2.58c0 1.513-1.132 2.577-2.446 2.577M48.71 23.057v1.808h4.403c-.129 1.01-.473 1.752-1 2.27-.644.625-1.645 1.319-3.403 1.319-2.71 0-4.832-2.144-4.832-4.8 0-2.657 2.122-4.8 4.832-4.8 1.465 0 2.531.56 3.318 1.288l1.3-1.273c-1.101-1.03-2.565-1.822-4.618-1.822-3.717 0-6.84 2.964-6.84 6.607 0 3.642 3.124 6.606 6.84 6.606 2.008 0 3.517-.645 4.703-1.855 1.215-1.192 1.594-2.866 1.594-4.219 0-.42-.036-.806-.1-1.129zm46.223 1.401c-.358-.95-1.464-2.704-3.716-2.704-2.232 0-4.09 1.723-4.09 4.253 0 2.383 1.84 4.253 4.304 4.253a4.32 4.32 0 0 0 3.617-1.885l-1.48-.966c-.493.707-1.165 1.176-2.137 1.176-.965 0-1.658-.434-2.101-1.289l5.803-2.354zm-5.917 1.417a2.355 2.355 0 0 1 2.266-2.48c.757 0 1.4.371 1.614.902zM84.298 30h1.907V17.5h-1.907zm-3.125-7.3h-.064c-.428-.497-1.245-.947-2.281-.947-2.173 0-4.16 1.87-4.16 4.267 0 2.384 1.987 4.239 4.16 4.239 1.035 0 1.853-.454 2.281-.966h.064v.61c0 1.626-.886 2.5-2.316 2.5-1.165 0-1.888-.825-2.187-1.52l-1.659.68c.478 1.127 1.745 2.515 3.846 2.515 2.237 0 4.125-1.29 4.125-4.43v-7.637h-1.809zm-2.182 5.884c-1.315 0-2.415-1.079-2.415-2.564 0-1.499 1.1-2.593 2.415-2.593 1.296 0 2.317 1.094 2.317 2.593 0 1.485-1.021 2.564-2.317 2.564M103.864 17.5h-4.563V30h1.903v-4.736h2.66c2.113 0 4.186-1.499 4.186-3.883 0-2.382-2.078-3.881-4.186-3.881m.05 6.025h-2.71v-4.286h2.71a2.19 2.19 0 0 1 2.232 2.142c0 .968-.811 2.144-2.232 2.144m11.762-1.796c-1.375 0-2.805.595-3.393 1.913l1.689.694c.363-.694 1.032-.918 1.738-.918.987 0 1.988.58 2.004 1.607v.131c-.345-.195-1.082-.483-1.989-.483-1.818 0-3.671.98-3.671 2.812 0 1.675 1.489 2.754 3.164 2.754 1.28 0 1.987-.567 2.431-1.225h.065v.966h1.837v-4.795c0-2.216-1.688-3.456-3.875-3.456m-.23 6.85c-.622 0-1.489-.303-1.489-1.059 0-.968 1.081-1.339 2.017-1.339.838 0 1.231.181 1.74.42-.15 1.158-1.166 1.978-2.268 1.978m10.8-6.576-2.187 5.418h-.065l-2.261-5.418h-2.052l3.398 7.572-1.939 4.214h1.988l5.235-11.786zM109.095 30h1.908V17.5h-1.908z"/>
    <path fill="url(#a)" d="M10.647 7.539c-.3.307-.474.786-.474 1.406V31.06c0 .62.174 1.099.473 1.406l.074.068 12.643-12.388v-.292L10.72 7.466z"/>
    <path fill="url(#b)" d="m27.573 24.278-4.21-4.132v-.292l4.215-4.131.094.053 4.992 2.784c1.424.79 1.424 2.09 0 2.885l-4.992 2.779z"/>
    <path fill="url(#c)" d="M27.671 24.224 23.362 20 10.645 32.466c.473.488 1.245.547 2.122.059z"/>
    <path fill="url(#d)" d="M27.671 15.776 12.767 7.475c-.877-.482-1.649-.424-2.122.064L23.362 20z"/>
    <path fill="#F4F4F4" d="M49.44 11.45v.948h-4.654v-.949zm-4.325 0v2.517h-1.144l-.057-2.518zm5.224 0-.092 2.522h-1.119v-2.523zM48.689 6v.954h-3.008V6zm.891 0v6.398h-1.202V6zm-4.092 0h1.206l-.162 2.602a8 8 0 0 1-.132 1.12q-.092.492-.228.875-.135.383-.302.672a3 3 0 0 1-.72.861 5 5 0 0 1-.372.268h-.671v-.949h.289q.127-.11.268-.307.144-.198.276-.523.136-.325.237-.822t.145-1.195zM50.98 10.07v-.093q0-.524.148-.962.15-.444.434-.77.285-.324.698-.505.412-.184.938-.184.536 0 .948.184.416.18.701.506.285.325.435.769.15.439.149.962v.092q0 .519-.15.963-.148.44-.434.769-.285.325-.697.505-.413.18-.943.18-.526 0-.943-.18a1.95 1.95 0 0 1-.702-.505 2.3 2.3 0 0 1-.434-.77q-.15-.443-.149-.962m1.157-.093v.092q0 .312.061.585.062.272.189.479a.95.95 0 0 0 .329.325 1 1 0 0 0 .491.114.96.96 0 0 0 .483-.114.95.95 0 0 0 .329-.325q.131-.207.193-.48.06-.271.06-.584v-.092q0-.307-.06-.576a1.5 1.5 0 0 0-.194-.479.92.92 0 0 0-.82-.452.91.91 0 0 0-.811.452 1.6 1.6 0 0 0-.189.48 2.6 2.6 0 0 0-.061.575M58.4 11.572q.246 0 .439-.096a.77.77 0 0 0 .306-.273.77.77 0 0 0 .128-.409h1.092q-.01.484-.272.866-.264.382-.702.607-.434.22-.974.22-.548 0-.956-.185a1.9 1.9 0 0 1-.68-.514 2.3 2.3 0 0 1-.403-.765q-.132-.434-.132-.932v-.14q0-.497.132-.932.135-.435.404-.765.27-.329.68-.514a2.3 2.3 0 0 1 .951-.184q.575 0 1.009.224.438.224.684.633.25.408.259.962h-1.092a1.06 1.06 0 0 0-.114-.457.84.84 0 0 0-.299-.325.86.86 0 0 0-.469-.123.9.9 0 0 0-.491.123.85.85 0 0 0-.303.338q-.105.21-.149.475-.04.259-.04.545v.14q0 .29.04.554.045.264.15.475a.86.86 0 0 0 .302.33.93.93 0 0 0 .5.122M63.619 7.644v4.754h-1.162V7.644zm1.544 0v.905h-4.224v-.905zM67.465 11.871l1.272-4.227h1.241l-1.903 5.475q-.066.176-.171.383a1.6 1.6 0 0 1-.272.39 1.3 1.3 0 0 1-.43.308q-.255.12-.618.119a1.6 1.6 0 0 1-.281-.022 4 4 0 0 1-.259-.057v-.87a1 1 0 0 0 .101.004 1.5 1.5 0 0 0 .526-.057.55.55 0 0 0 .268-.19 1 1 0 0 0 .175-.333zm-.627-4.227 1.075 3.502.188 1.226-.798.145-1.715-4.873zM73.904 7.644v.918h-2.32v-.918zm-2.014 0v4.754h-1.162V7.644zm2.89 0v4.754h-1.166V7.644zM79.254 9.595v.91H76.82v-.91zm-2.07-1.951v4.754h-1.162V7.644zm2.882 0v4.754h-1.167V7.644zM81.092 10.07v-.093q0-.524.149-.962.15-.444.434-.77.285-.324.697-.505.412-.184.939-.184.535 0 .947.184.417.18.702.506.285.325.434.769.15.439.15.962v.092q0 .519-.15.963-.15.44-.434.769-.285.325-.697.505-.413.18-.943.18-.526 0-.943-.18a1.95 1.95 0 0 1-.702-.505 2.3 2.3 0 0 1-.434-.77q-.15-.443-.15-.962m1.158-.093v.092q0 .312.061.585.06.272.189.479a.95.95 0 0 0 .329.325 1 1 0 0 0 .49.114.96.96 0 0 0 .483-.114.94.94 0 0 0 .33-.325q.13-.207.192-.48a2.7 2.7 0 0 0 .061-.584v-.092q0-.307-.06-.576a1.5 1.5 0 0 0-.194-.479.92.92 0 0 0-.82-.452.91.91 0 0 0-.811.452 1.6 1.6 0 0 0-.189.48q-.06.267-.061.575M91.315 10.386H89.81l-.01-.787h1.238q.276 0 .451-.057a.5.5 0 0 0 .26-.171.44.44 0 0 0 .087-.277.5.5 0 0 0-.053-.242.4.4 0 0 0-.158-.171.7.7 0 0 0-.258-.097 1.6 1.6 0 0 0-.36-.035h-.785v3.85H89.06V7.643h1.947q.46 0 .829.083.368.079.627.242.258.162.395.413.14.246.14.58a.9.9 0 0 1-.096.413q-.097.193-.285.343-.189.15-.465.246-.277.092-.632.114zm0 2.012h-1.816l.43-.905h1.386q.255 0 .421-.061a.5.5 0 0 0 .246-.19.52.52 0 0 0 .083-.298.53.53 0 0 0-.079-.295.46.46 0 0 0-.241-.193 1.1 1.1 0 0 0-.43-.07h-1.197l.008-.787h1.39l.308.312q.474.03.785.194.31.158.465.404a.97.97 0 0 1 .153.531q0 .339-.127.594-.128.255-.373.426a1.9 1.9 0 0 1-.6.255 3.6 3.6 0 0 1-.812.083"/><defs><linearGradient id="a" x1="22.241" x2="5.462" y1="31.29" y2="14.172" gradientUnits="userSpaceOnUse"><stop stop-color="#00A0FF"/><stop offset=".007" stop-color="#00A1FF"/><stop offset=".26" stop-color="#00BEFF"/><stop offset=".512" stop-color="#00D2FF"/><stop offset=".76" stop-color="#00DFFF"/><stop offset="1" stop-color="#00E3FF"/></linearGradient><linearGradient id="b" x1="34.519" x2="9.832" y1="19.999" y2="19.999" gradientUnits="userSpaceOnUse"><stop stop-color="#FFE000"/><stop offset=".409" stop-color="#FFBD00"/><stop offset=".775" stop-color="orange"/><stop offset="1" stop-color="#FF9C00"/></linearGradient><linearGradient id="c" x1="25.328" x2="2.574" y1="17.704" y2="-5.51" gradientUnits="userSpaceOnUse"><stop stop-color="#FF3A44"/><stop offset="1" stop-color="#C31162"/></linearGradient><linearGradient id="d" x1="7.444" x2="17.605" y1="39.824" y2="29.458" gradientUnits="userSpaceOnUse"><stop stop-color="#32A071"/><stop offset=".069" stop-color="#2DA771"/><stop offset=".476" stop-color="#15CF74"/><stop offset=".801" stop-color="#06E775"/><stop offset="1" stop-color="#00F076"/></linearGradient></defs>
</svg>