<svg xmlns="http://www.w3.org/2000/svg" width="24" height="24" fill="none"><path fill="#fff" d="M20.034 6.058a2.24 2.24 0 0 0-1.727-.808H6.181l-.031-.263A2.25 2.25 0 0 0 3.916 3H3.75a.75.75 0 0 0 0 1.5h.166a.75.75 0 0 1 .745.662l1.032 8.775a3.75 3.75 0 0 0 3.725 3.313h7.832a.75.75 0 0 0 0-1.5H9.418a2.25 2.25 0 0 1-2.115-1.5h8.94a3.75 3.75 0 0 0 3.69-3.085l.589-3.265a2.24 2.24 0 0 0-.488-1.842m-.984 1.575-.59 3.266a2.25 2.25 0 0 1-2.218 1.85H7.064l-.706-6h11.95a.75.75 0 0 1 .742.884M8.25 21a1.5 1.5 0 1 0 0-3 1.5 1.5 0 0 0 0 3M15.75 21a1.5 1.5 0 1 0 0-3 1.5 1.5 0 0 0 0 3"/></svg>