<svg xmlns="http://www.w3.org/2000/svg" width="24" height="24" fill="none"><path fill="#1C1C1C" fill-rule="evenodd" d="M12 3.85a3.15 3.15 0 1 0 0 6.3 3.15 3.15 0 0 0 0-6.3M7.15 7a4.85 4.85 0 1 1 9.7 0 4.85 4.85 0 0 1-9.7 0m.28 8.785c-1.176.589-1.58 1.244-1.58 1.715s.404 1.126 1.58 1.715c1.126.562 2.74.935 4.57.935s3.444-.373 4.57-.935c1.176-.589 1.58-1.244 1.58-1.715s-.404-1.126-1.58-1.715c-1.126-.562-2.74-.935-4.57-.935s-3.444.373-4.57.935m-.76-1.52C8.078 13.56 9.964 13.15 12 13.15s3.922.41 5.33 1.115c1.357.678 2.52 1.773 2.52 3.235s-1.163 2.557-2.52 3.235c-1.408.704-3.294 1.115-5.33 1.115s-3.922-.41-5.33-1.115c-1.357-.678-2.52-1.773-2.52-3.235s1.163-2.557 2.52-3.235" clip-rule="evenodd"/></svg>